<?xml version="1.0" standalone="no"?>
<!DOCTYPE svg PUBLIC "-//W3C//DTD SVG 20010904//EN"
 "http://www.w3.org/TR/2001/REC-SVG-20010904/DTD/svg10.dtd">
<svg version="1.0" xmlns="http://www.w3.org/2000/svg"
 width="1137.000000pt" height="1137.000000pt" viewBox="0 0 1137.000000 1137.000000"
 preserveAspectRatio="xMidYMid meet">
<metadata>
Created by potrace 1.14, written by Peter Selinger 2001-2017
</metadata>
<g transform="translate(0.000000,1137.000000) scale(0.100000,-0.100000)"
fill="#000000" stroke="none">
<path d="M5408 10755 c-2 -1 -48 -6 -103 -10 -55 -3 -111 -8 -125 -10 -14 -2
-56 -6 -95 -10 -38 -3 -77 -8 -85 -10 -8 -2 -64 -12 -125 -20 -60 -9 -159 -27
-220 -40 -60 -13 -121 -26 -135 -28 -14 -3 -38 -8 -54 -12 -23 -6 -28 -5 -22
6 4 8 2 7 -6 -2 -17 -21 -64 -37 -53 -18 5 7 -2 5 -16 -4 -13 -9 -33 -17 -44
-17 -12 0 -27 -6 -34 -12 -11 -11 -12 -8 -7 12 6 25 6 25 -5 3 -7 -13 -19 -24
-28 -25 -32 -3 -36 -4 -48 -11 -7 -5 -17 -6 -22 -3 -5 4 -11 0 -14 -6 -3 -10
-8 -9 -18 3 -10 13 -19 15 -34 8 -18 -9 -18 -9 3 -5 18 3 22 0 20 -12 -2 -9
-10 -17 -18 -18 -8 0 -32 -8 -54 -17 -21 -9 -42 -17 -46 -17 -19 0 -368 -144
-475 -196 -66 -32 -131 -63 -145 -69 -32 -13 -290 -157 -355 -197 -145 -91
-347 -227 -385 -260 -8 -7 -31 -25 -52 -40 -35 -26 -47 -36 -98 -78 -9 -8 -31
-25 -48 -38 -17 -13 -45 -37 -64 -54 -18 -16 -60 -53 -92 -81 -33 -29 -75 -66
-93 -84 -21 -20 -40 -30 -51 -27 -12 4 -13 3 -4 -3 9 -7 -8 -29 -63 -82 -41
-40 -75 -78 -75 -85 0 -6 -10 4 -21 22 -24 37 -29 40 -22 12 3 -11 9 -20 13
-20 13 0 5 -33 -8 -38 -7 -2 -9 -9 -6 -14 4 -6 2 -8 -4 -4 -5 3 -20 -10 -32
-29 -12 -19 -26 -35 -31 -35 -6 0 -7 5 -4 10 3 6 1 10 -4 10 -13 0 -14 -12 -3
-26 4 -5 6 -8 3 -7 -2 1 -19 -18 -38 -42 -19 -25 -38 -45 -43 -45 -6 0 -10 -5
-10 -11 0 -6 -12 -26 -28 -44 -15 -18 -37 -46 -49 -61 -46 -61 -59 -77 -86
-107 -15 -17 -30 -40 -33 -49 -3 -10 -9 -18 -14 -18 -5 0 -11 -8 -14 -17 -3
-10 -19 -34 -36 -53 -17 -19 -33 -43 -36 -52 -3 -10 -10 -18 -15 -18 -5 0 -9
-7 -9 -15 0 -8 -4 -15 -8 -15 -4 0 -25 -28 -45 -62 -21 -35 -43 -72 -50 -83
-7 -11 -15 -22 -18 -25 -3 -3 -14 -21 -24 -40 -10 -19 -21 -37 -25 -40 -3 -3
-13 -18 -22 -35 -41 -81 -64 -121 -73 -127 -5 -4 -6 -8 -1 -8 5 0 2 -8 -6 -17
-18 -22 -139 -265 -135 -274 1 -4 -6 -15 -15 -25 -9 -11 -16 -21 -16 -24 0 -5
-13 -36 -48 -117 -13 -29 -21 -53 -18 -53 3 0 -2 -14 -10 -30 -9 -17 -23 -43
-31 -60 -9 -16 -15 -31 -15 -32 3 -6 -13 -63 -20 -73 -4 -5 -15 -35 -24 -65
-9 -30 -20 -62 -23 -70 -3 -8 -7 -21 -9 -28 -1 -8 -6 -21 -10 -30 -4 -9 -8
-21 -9 -27 -2 -5 -8 -30 -16 -55 -7 -25 -14 -51 -15 -58 -1 -8 -11 -20 -21
-29 -10 -8 -12 -11 -4 -7 11 6 12 1 7 -22 -5 -16 -9 -37 -11 -47 -2 -9 -7 -23
-12 -30 -4 -6 -9 -23 -11 -36 -2 -13 -11 -35 -20 -50 -15 -24 -15 -25 0 -13
14 11 16 11 11 -7 -6 -24 -33 -29 -33 -7 0 20 -17 29 -26 15 -4 -8 -3 -9 4 -5
7 4 13 1 13 -8 3 -30 4 -34 13 -43 5 -5 6 -3 2 5 -4 6 -2 12 3 12 9 0 9 -31 0
-50 -3 -8 -7 -23 -8 -38 0 -7 -6 -10 -13 -6 -7 5 -8 3 -2 -7 12 -20 14 -38 4
-44 -5 -3 -6 -13 -3 -22 5 -12 2 -15 -10 -10 -9 3 -17 2 -17 -3 0 -6 5 -10 11
-10 10 0 7 -64 -6 -131 -3 -13 -7 -42 -10 -64 -3 -22 -7 -50 -10 -63 -2 -12
-7 -55 -11 -95 -3 -39 -8 -85 -9 -102 -13 -132 -18 -241 -19 -440 -1 -212 1
-277 19 -470 4 -38 9 -92 11 -120 2 -27 11 -95 20 -150 9 -55 18 -116 20 -135
2 -19 6 -46 9 -60 3 -14 8 -38 11 -54 2 -15 11 -56 19 -90 15 -62 24 -115 28
-151 1 -11 5 -22 9 -25 4 -3 8 -20 10 -38 1 -18 6 -32 10 -32 12 0 10 -28 -2
-35 -6 -4 -19 -1 -28 6 -9 7 -3 -1 13 -17 17 -17 32 -29 35 -28 3 1 7 -7 8
-19 3 -28 7 -47 16 -72 15 -38 16 -46 6 -40 -6 3 -7 -1 -4 -9 3 -9 10 -13 15
-10 11 6 12 -29 2 -40 -10 -10 -13 -37 -3 -31 5 3 11 -1 13 -7 3 -8 6 -6 6 5
1 9 -4 17 -10 17 -5 0 -7 5 -4 10 10 16 25 1 25 -24 0 -12 5 -27 10 -32 6 -6
12 -24 13 -41 1 -17 6 -29 11 -25 5 3 7 -2 3 -11 -3 -9 -3 -17 1 -19 4 -2 36
-75 72 -163 104 -259 266 -581 383 -763 24 -37 54 -85 67 -107 36 -60 234
-336 265 -369 6 -6 26 -31 45 -56 19 -25 39 -50 45 -56 5 -6 33 -38 60 -70 28
-32 65 -74 83 -93 18 -20 30 -42 27 -49 -2 -7 -1 -11 4 -8 11 7 53 -29 44 -38
-3 -3 1 -6 10 -6 20 0 23 -16 5 -24 -9 -4 -8 -5 2 -4 8 1 23 -2 33 -7 14 -6
15 -10 6 -22 -7 -8 -8 -13 -3 -12 22 4 34 -2 34 -17 0 -8 5 -12 10 -9 6 3 10
1 10 -5 0 -6 5 -8 12 -4 6 4 8 3 5 -3 -4 -6 1 -14 10 -17 12 -5 14 -9 5 -18
-7 -7 -12 -17 -12 -22 0 -6 5 -3 11 7 14 23 23 22 39 -8 7 -14 15 -23 17 -21
8 7 71 -59 65 -68 -3 -5 0 -6 6 -2 7 4 22 -3 35 -16 41 -40 142 -126 197 -168
18 -14 44 -35 59 -48 14 -12 41 -32 59 -43 17 -11 32 -25 32 -30 0 -5 6 -9 13
-9 8 0 24 -11 37 -25 13 -14 29 -25 37 -25 7 0 13 -4 13 -10 0 -5 4 -10 10
-10 5 0 36 -20 69 -45 32 -25 64 -45 70 -45 6 0 11 -4 11 -10 0 -5 7 -10 15
-10 8 0 15 -4 15 -10 0 -5 5 -10 11 -10 6 0 30 -13 54 -30 24 -17 48 -30 54
-30 6 0 11 -4 11 -10 0 -5 7 -10 15 -10 8 0 15 -4 15 -9 0 -5 16 -15 35 -21
19 -6 35 -15 35 -18 0 -4 25 -18 55 -32 30 -14 55 -27 55 -30 0 -3 20 -14 45
-24 25 -11 45 -23 45 -28 0 -5 4 -6 10 -3 5 3 10 1 10 -4 0 -6 6 -11 13 -11 8
0 53 -20 101 -44 48 -24 90 -45 94 -46 4 -1 22 -8 40 -16 83 -37 101 -44 152
-64 30 -12 66 -27 80 -33 14 -5 30 -12 35 -13 16 -5 228 -80 245 -87 40 -15
109 -34 134 -36 4 -1 5 -9 2 -18 -6 -17 -5 -17 7 -2 11 14 16 15 37 4 14 -7
43 -16 65 -20 22 -5 46 -10 53 -12 6 -1 18 -4 25 -6 38 -10 57 -20 52 -28 -4
-5 -2 -9 4 -9 5 0 11 5 13 11 2 7 18 7 51 -1 30 -8 44 -16 40 -24 -4 -6 1 -5
10 3 9 7 17 10 17 5 0 -5 19 -10 41 -11 23 0 46 -7 50 -15 7 -10 9 -10 9 0 0
7 3 11 8 8 4 -2 28 -7 52 -10 25 -4 56 -9 70 -11 14 -3 43 -7 65 -10 22 -3 51
-7 65 -10 35 -7 162 -19 325 -31 192 -15 650 -9 820 10 22 3 67 7 100 11 33 3
71 7 85 10 14 2 77 11 140 20 63 9 162 27 220 40 58 13 125 27 150 30 24 4 51
10 60 14 8 4 22 7 30 6 8 0 17 3 20 7 3 4 24 10 45 14 22 3 55 12 73 19 17 8
32 10 32 4 0 -5 5 -9 11 -9 5 0 8 4 4 9 -7 12 31 25 45 16 6 -4 8 -10 6 -14
-3 -4 4 -13 15 -19 19 -12 20 -12 3 13 -9 14 -15 27 -13 28 2 1 19 8 37 14 24
9 31 9 26 0 -3 -7 2 -3 11 8 13 17 17 18 25 5 5 -8 6 -19 2 -25 -3 -5 2 -4 11
4 18 15 23 26 7 16 -6 -3 -10 1 -10 9 0 19 12 20 29 4 10 -11 11 -10 6 3 -5
12 2 18 27 24 18 4 35 9 38 10 3 1 14 5 25 10 11 4 81 33 155 62 334 135 740
353 980 527 36 26 88 62 115 80 28 19 60 42 71 52 12 11 36 30 54 44 35 26 86
67 106 85 7 5 37 30 68 54 31 24 56 48 56 54 0 5 7 6 16 3 8 -3 13 -2 10 3 -3
4 6 19 21 32 14 13 23 17 18 9 -4 -8 9 4 30 27 21 24 42 40 47 37 5 -3 12 3
15 15 3 12 12 21 20 21 8 0 11 5 7 13 -4 6 -4 9 0 6 4 -4 20 7 36 23 17 16 34
27 40 23 5 -3 8 0 5 7 -2 7 6 25 20 41 24 27 42 37 29 15 -4 -7 -3 -8 4 -4 6
4 9 12 6 19 -2 7 6 22 18 33 13 11 41 42 63 69 22 27 54 63 70 80 44 46 76 85
110 130 31 40 39 50 79 97 12 15 31 39 42 54 10 14 27 35 37 46 9 12 17 25 17
29 0 4 6 14 13 21 6 7 28 36 46 63 19 28 37 52 41 55 7 7 60 89 60 94 0 3 56
91 78 122 7 10 19 31 45 77 6 12 17 25 22 29 7 5 7 8 0 8 -7 0 -7 3 0 8 27 19
235 442 291 590 13 34 30 77 37 95 19 42 41 99 43 112 2 6 17 51 34 100 17 50
32 95 34 102 1 7 5 16 9 19 4 4 7 16 7 26 0 11 4 16 10 13 6 -3 7 1 4 10 -4 8
2 27 11 41 9 15 12 23 6 20 -12 -8 -15 6 -4 18 4 3 8 14 9 22 5 34 14 46 32
40 16 -6 16 -5 0 8 -10 7 -18 18 -18 25 0 6 8 11 18 11 9 0 13 4 7 8 -5 4 -11
14 -13 22 -3 10 3 9 19 -5 12 -11 19 -15 16 -8 -4 6 -4 13 0 16 5 2 3 2 -4 1
-6 -2 -14 4 -17 12 -9 23 -7 34 5 34 5 0 8 -4 4 -9 -3 -5 -1 -12 4 -16 6 -3 8
3 6 15 -2 11 0 22 6 25 5 4 9 11 9 18 0 6 -7 2 -15 -9 -13 -17 -14 -17 -15 -2
0 9 4 19 10 23 5 3 6 13 3 22 -4 9 -2 14 3 11 5 -4 9 8 10 25 0 18 3 47 7 65
7 31 11 52 22 122 3 19 7 46 10 60 2 14 7 45 10 70 6 45 9 67 19 125 3 17 8
66 11 110 4 44 9 94 11 110 5 37 16 316 16 410 0 79 -12 384 -17 430 -2 17 -7
62 -10 100 -10 97 -53 386 -70 465 -8 36 -16 79 -19 97 -2 17 -7 37 -12 44 -5
8 -3 10 7 4 12 -7 12 -6 1 7 -7 9 -14 27 -16 40 -1 13 -6 29 -10 36 -4 7 -4
17 -1 22 3 6 2 10 -4 10 -5 0 -8 9 -6 20 2 11 0 20 -6 20 -5 0 -9 8 -9 18 0
14 2 15 10 2 6 -10 10 -11 10 -2 0 6 -9 21 -21 33 -11 11 -18 24 -14 27 3 4
11 0 16 -8 9 -12 10 -11 4 5 -4 13 1 25 17 37 20 16 20 17 3 11 -11 -4 -25
-14 -32 -22 -7 -10 -12 -11 -13 -4 0 6 -3 20 -6 30 -4 13 -3 15 4 4 6 -8 12
-9 16 -3 3 6 -3 14 -14 17 -22 7 -22 26 0 33 8 3 10 0 5 -8 -5 -9 -4 -11 4 -6
15 9 3 29 -14 22 -14 -5 -35 29 -38 62 0 12 -5 22 -10 22 -5 0 -4 7 3 16 11
12 11 15 -1 12 -9 -2 -14 5 -13 19 0 12 -3 20 -8 17 -4 -3 -9 2 -9 10 -2 19
-3 25 -14 51 -4 11 -36 92 -70 180 -65 167 -209 474 -244 524 -12 16 -21 33
-21 39 0 5 -25 51 -55 101 -30 51 -55 96 -55 101 0 4 -3 10 -8 12 -4 2 -30 39
-57 83 -27 44 -53 82 -57 83 -4 2 -8 9 -8 15 0 6 -8 20 -19 31 -10 12 -44 59
-76 106 -33 47 -79 110 -104 141 -25 30 -57 70 -71 88 -26 36 -40 52 -97 116
-19 22 -58 67 -87 99 -28 32 -68 77 -88 99 -20 23 -35 44 -32 49 3 4 -3 5 -12
1 -13 -5 -16 -3 -11 10 4 10 2 16 -6 14 -7 -1 -11 4 -9 11 1 8 -2 11 -7 7 -6
-3 -16 3 -23 15 -7 11 -19 20 -27 20 -11 0 -10 5 4 20 15 16 16 24 7 42 -11
22 -11 21 -6 -5 5 -22 3 -26 -9 -21 -9 3 -14 14 -12 24 2 12 -1 17 -9 14 -17
-6 -41 22 -26 31 5 3 10 1 10 -4 0 -15 17 -14 23 2 8 20 -30 14 -51 -8 -9 -10
-11 -15 -4 -11 6 4 12 3 12 -3 0 -5 9 -13 20 -16 11 -4 18 -10 15 -15 -3 -5 3
-13 12 -19 16 -9 16 -10 1 -11 -9 0 -20 9 -23 20 -3 11 -12 20 -19 20 -17 0
-66 52 -66 71 0 12 -2 12 -11 -1 -9 -12 -10 -11 -6 7 3 16 1 20 -10 16 -16 -6
-55 25 -47 38 3 5 -2 6 -10 3 -11 -4 -16 0 -16 10 0 9 -6 16 -13 16 -7 0 -20
8 -28 18 -9 9 -29 26 -44 37 -25 17 -54 41 -128 101 -10 8 -42 32 -70 52 -29
20 -61 45 -71 54 -11 10 -23 18 -27 18 -4 0 -14 6 -21 13 -7 7 -56 41 -108 75
-52 34 -100 66 -107 72 -7 5 -15 10 -19 10 -3 0 -20 10 -37 23 -44 30 -87 55
-119 68 -16 6 -28 15 -28 20 0 5 -6 9 -14 9 -7 0 -25 9 -40 21 -14 11 -26 17
-26 13 0 -4 -8 -1 -17 7 -10 8 -31 21 -48 29 -16 8 -33 18 -36 23 -3 4 -14 9
-25 12 -10 2 -74 31 -142 64 -67 34 -125 61 -128 61 -7 0 -71 28 -104 45 -14
7 -28 14 -33 14 -4 0 -23 8 -43 16 -20 8 -42 15 -48 15 -7 0 -16 4 -22 8 -5 4
-27 14 -49 21 -22 8 -51 18 -65 24 -26 11 -41 15 -65 20 -8 2 -18 6 -21 10 -4
4 -16 7 -26 7 -10 0 -18 7 -19 18 0 11 -2 12 -6 4 -4 -10 -10 -9 -26 5 -11 10
-17 12 -13 6 9 -15 -15 -18 -30 -3 -5 5 -21 11 -34 14 -14 2 -27 5 -29 5 -2 1
4 13 13 29 17 27 17 26 -10 -3 l-27 -30 6 28 c5 17 3 27 -3 27 -6 0 -8 -4 -5
-10 3 -5 2 -10 -4 -10 -6 0 -8 -8 -5 -17 4 -12 -1 -10 -16 7 -13 15 -20 18
-17 9 5 -15 2 -15 -26 -5 -18 6 -35 15 -38 20 -4 5 -11 6 -16 3 -4 -3 -35 1
-68 8 -33 8 -76 16 -95 20 -72 13 -112 21 -138 29 -9 3 -37 8 -62 11 -25 2
-54 7 -65 9 -11 2 -40 7 -65 10 -25 3 -56 8 -70 10 -41 7 -110 15 -185 21 -38
3 -86 9 -105 12 -37 5 -666 13 -672 8z m-4608 -6425 c0 -5 -2 -10 -4 -10 -3 0
-8 5 -11 10 -3 6 -1 10 4 10 6 0 11 -4 11 -10z"/>
<path d="M6947 10689 c7 -7 15 -10 18 -7 3 3 -2 9 -12 12 -14 6 -15 5 -6 -5z"/>
<path d="M4236 10657 c3 -10 9 -15 12 -12 3 3 0 11 -7 18 -10 9 -11 8 -5 -6z"/>
<path d="M4353 10640 c-1 -11 2 -20 7 -20 4 0 7 7 6 15 -3 23 -12 26 -13 5z"/>
<path d="M7004 10648 c-3 -4 5 -5 17 -3 30 6 36 14 9 12 -12 -1 -24 -5 -26 -9z"/>
<path d="M7077 10645 c-4 -8 -1 -17 5 -21 7 -5 8 -2 3 6 -6 10 -4 12 10 6 15
-5 16 -4 5 9 -15 19 -16 19 -23 0z"/>
<path d="M7136 10643 c-6 -14 -5 -15 5 -6 7 7 10 15 7 18 -3 3 -9 -2 -12 -12z"/>
<path d="M4296 10625 c-3 -9 3 -19 14 -25 14 -7 20 -7 20 0 0 5 -7 10 -15 10
-9 0 -12 6 -9 15 4 8 4 15 1 15 -3 0 -7 -7 -11 -15z"/>
<path d="M7035 10629 c-4 -6 -5 -12 -2 -15 2 -3 7 2 10 11 7 17 1 20 -8 4z"/>
<path d="M4173 10615 c0 -8 4 -12 9 -9 5 3 6 10 3 15 -9 13 -12 11 -12 -6z"/>
<path d="M6986 10617 c3 -10 9 -15 12 -12 3 3 0 11 -7 18 -10 9 -11 8 -5 -6z"/>
<path d="M4256 10605 c4 -8 8 -15 10 -15 2 0 4 7 4 15 0 8 -4 15 -10 15 -5 0
-7 -7 -4 -15z"/>
<path d="M4125 10590 c-3 -6 1 -7 9 -4 18 7 21 14 7 14 -6 0 -13 -4 -16 -10z"/>
<path d="M4190 10590 c0 -5 7 -7 15 -4 8 4 15 8 15 10 0 2 -7 4 -15 4 -8 0
-15 -4 -15 -10z"/>
<path d="M7110 10591 c0 -5 7 -11 14 -14 10 -4 13 -1 9 9 -6 15 -23 19 -23 5z"/>
<path d="M7146 10588 c3 -5 10 -6 15 -3 13 9 11 12 -6 12 -8 0 -12 -4 -9 -9z"/>
<path d="M7190 10585 c5 -7 7 -14 5 -17 -3 -3 5 -5 17 -4 13 0 22 -4 21 -11
-2 -10 23 -13 29 -2 2 2 1 3 -1 1 -2 -1 -13 6 -24 15 -10 10 -22 17 -26 17 -3
-1 -5 1 -4 5 1 4 -5 8 -12 8 -10 0 -12 -4 -5 -12z"/>
<path d="M4170 10581 c0 -7 -4 -9 -10 -6 -5 3 -10 2 -10 -3 0 -5 12 -9 26 -9
14 0 22 2 18 6 -5 3 -12 10 -16 15 -5 5 -8 4 -8 -3z"/>
<path d="M4215 10570 c3 -5 8 -10 11 -10 2 0 4 5 4 10 0 6 -5 10 -11 10 -5 0
-7 -4 -4 -10z"/>
<path d="M4057 10553 c-8 -7 11 -33 24 -33 5 0 9 5 9 10 0 6 -6 9 -12 8 -7 -2
-12 3 -10 10 2 13 -1 15 -11 5z"/>
<path d="M4030 10533 c0 -6 8 -17 18 -24 16 -13 16 -13 2 6 -8 11 -16 22 -17
24 -2 2 -3 0 -3 -6z"/>
<path d="M7290 10531 c0 -6 4 -13 10 -16 6 -3 7 1 4 9 -7 18 -14 21 -14 7z"/>
<path d="M9050 9509 c0 -5 5 -7 10 -4 6 3 10 8 10 11 0 2 -4 4 -10 4 -5 0 -10
-5 -10 -11z"/>
<path d="M9134 9512 c10 -17 -13 -25 -31 -10 -15 12 -15 11 -2 -9 17 -28 21
-28 36 -3 9 14 10 21 1 26 -6 4 -8 3 -4 -4z"/>
<path d="M9175 9510 c-3 -5 -1 -10 4 -10 6 0 11 5 11 10 0 6 -2 10 -4 10 -3 0
-8 -4 -11 -10z"/>
<path d="M9176 9477 c3 -10 9 -15 12 -12 3 3 0 11 -7 18 -10 9 -11 8 -5 -6z"/>
<path d="M9127 9453 c-8 -8 4 -33 15 -33 6 0 4 7 -3 16 -12 15 -11 16 9 10 12
-4 22 -4 22 1 0 10 -35 15 -43 6z"/>
<path d="M9233 9425 c0 -8 4 -12 9 -9 5 3 6 10 3 15 -9 13 -12 11 -12 -6z"/>
<path d="M9256 9403 c-6 -14 -5 -15 5 -6 7 7 10 15 7 18 -3 3 -9 -2 -12 -12z"/>
<path d="M9280 9390 c-9 -6 -10 -10 -3 -10 6 0 15 5 18 10 8 12 4 12 -15 0z"/>
<path d="M9250 9330 c0 -5 5 -10 10 -10 6 0 10 5 10 10 0 6 -4 10 -10 10 -5 0
-10 -4 -10 -10z"/>
<path d="M9286 9332 c-3 -5 1 -9 9 -9 8 0 12 4 9 9 -3 4 -7 8 -9 8 -2 0 -6 -4
-9 -8z"/>
<path d="M2019 9318 c-5 -18 -6 -39 -2 -34 4 3 13 0 22 -6 12 -10 12 -7 -2 8
-9 11 -14 24 -10 27 3 4 3 7 0 7 -4 0 -7 -1 -8 -2z"/>
<path d="M9296 9297 c3 -10 9 -15 12 -12 3 3 0 11 -7 18 -10 9 -11 8 -5 -6z"/>
<path d="M2075 9280 c-3 -5 -1 -10 4 -10 6 0 11 5 11 10 0 6 -2 10 -4 10 -3 0
-8 -4 -11 -10z"/>
<path d="M1955 9270 c-3 -5 -1 -10 4 -10 6 0 11 5 11 10 0 6 -2 10 -4 10 -3 0
-8 -4 -11 -10z"/>
<path d="M9335 9271 c-3 -5 -2 -12 3 -15 5 -3 9 1 9 9 0 17 -3 19 -12 6z"/>
<path d="M2017 9259 c7 -7 15 -10 18 -7 3 3 -2 9 -12 12 -14 6 -15 5 -6 -5z"/>
<path d="M1990 9250 c0 -5 5 -10 11 -10 5 0 7 5 4 10 -3 6 -8 10 -11 10 -2 0
-4 -4 -4 -10z"/>
<path d="M1896 9228 c3 -4 11 -5 19 -1 21 7 19 12 -4 10 -11 0 -18 -5 -15 -9z"/>
<path d="M2014 9228 c-4 -5 -3 -12 0 -15 3 -4 6 -1 6 6 0 7 4 10 9 6 5 -3 12
-2 15 3 3 5 -2 9 -10 9 -8 0 -17 -4 -20 -9z"/>
<path d="M1950 9191 c0 -5 7 -11 14 -14 10 -4 13 -1 9 9 -6 15 -23 19 -23 5z"/>
<path d="M1918 9173 c7 -3 16 -2 19 1 4 3 -2 6 -13 5 -11 0 -14 -3 -6 -6z"/>
<path d="M1835 9161 c-3 -5 -2 -12 3 -15 5 -3 9 1 9 9 0 17 -3 19 -12 6z"/>
<path d="M1876 9144 c7 -37 16 -47 12 -12 -2 15 -7 30 -11 34 -3 3 -4 -6 -1
-22z"/>
<path d="M1941 9161 c-8 -5 -9 -11 -3 -15 5 -3 12 1 16 9 6 17 6 18 -13 6z"/>
<path d="M1917 9133 c-4 -3 -7 -11 -7 -17 0 -6 5 -5 12 2 6 6 9 14 7 17 -3 3
-9 2 -12 -2z"/>
<path d="M1830 9052 c0 -5 7 -9 15 -9 8 0 12 4 9 9 -3 4 -9 8 -15 8 -5 0 -9
-4 -9 -8z"/>
<path d="M10595 7141 c-3 -5 -2 -12 3 -15 5 -3 9 1 9 9 0 17 -3 19 -12 6z"/>
<path d="M10636 7083 c-6 -14 -5 -15 5 -6 7 7 10 15 7 18 -3 3 -9 -2 -12 -12z"/>
<path d="M10673 7075 c0 -8 4 -12 9 -9 5 3 6 10 3 15 -9 13 -12 11 -12 -6z"/>
<path d="M10611 7043 c-1 -17 16 -25 25 -12 4 7 3 9 -4 5 -5 -3 -13 0 -15 6
-4 9 -6 10 -6 1z"/>
<path d="M10643 7013 c-7 -2 -13 -9 -13 -15 0 -7 5 -7 13 1 8 6 18 7 22 3 5
-4 5 -1 1 6 -4 6 -8 12 -9 11 -1 0 -8 -3 -14 -6z"/>
<path d="M10615 6970 c-3 -5 -1 -10 4 -10 6 0 11 5 11 10 0 6 -2 10 -4 10 -3
0 -8 -4 -11 -10z"/>
<path d="M10653 6965 c0 -8 4 -12 9 -9 4 3 8 9 8 15 0 5 -4 9 -8 9 -5 0 -9 -7
-9 -15z"/>
<path d="M746 6947 c3 -10 9 -15 12 -12 3 3 0 11 -7 18 -10 9 -11 8 -5 -6z"/>
<path d="M717 6943 c-4 -3 -7 -11 -7 -17 0 -6 5 -5 12 2 6 6 9 14 7 17 -3 3
-9 2 -12 -2z"/>
<path d="M10630 6940 c0 -5 5 -10 11 -10 5 0 7 5 4 10 -3 6 -8 10 -11 10 -2 0
-4 -4 -4 -10z"/>
<path d="M726 6912 c-3 -5 1 -9 9 -9 8 0 12 4 9 9 -3 4 -7 8 -9 8 -2 0 -6 -4
-9 -8z"/>
<path d="M690 6896 c0 -2 7 -7 16 -10 8 -3 12 -2 9 4 -6 10 -25 14 -25 6z"/>
<path d="M726 6873 c-6 -14 -5 -15 5 -6 7 7 10 15 7 18 -3 3 -9 -2 -12 -12z"/>
<path d="M700 6861 c0 -6 4 -13 10 -16 6 -3 7 1 4 9 -7 18 -14 21 -14 7z"/>
<path d="M695 6750 c3 -5 8 -10 11 -10 2 0 4 5 4 10 0 6 -5 10 -11 10 -5 0 -7
-4 -4 -10z"/>
<path d="M668 6742 c8 -5 13 -13 12 -18 -1 -5 4 -10 12 -12 11 -3 11 -2 0 6
-8 5 -13 13 -12 18 1 5 -4 10 -12 12 -11 3 -11 2 0 -6z"/>
<path d="M654 6699 c-3 -6 -2 -15 3 -20 5 -5 9 -1 9 11 0 23 -2 24 -12 9z"/>
<path d="M666 6648 c3 -5 10 -6 15 -3 13 9 11 12 -6 12 -8 0 -12 -4 -9 -9z"/>
<path d="M10660 4636 c0 -2 8 -10 18 -17 15 -13 16 -12 3 4 -13 16 -21 21 -21
13z"/>
<path d="M10670 4550 c0 -4 7 -7 15 -6 23 3 26 12 5 13 -11 1 -20 -2 -20 -7z"/>
<path d="M10665 4490 c3 -5 8 -10 11 -10 2 0 4 5 4 10 0 6 -5 10 -11 10 -5 0
-7 -4 -4 -10z"/>
<path d="M735 4430 c-3 -5 -1 -10 4 -10 6 0 11 5 11 10 0 6 -2 10 -4 10 -3 0
-8 -4 -11 -10z"/>
<path d="M10610 4416 c0 -2 7 -7 16 -10 8 -3 12 -2 9 4 -6 10 -25 14 -25 6z"/>
<path d="M713 4345 c0 -8 4 -12 9 -9 5 3 6 10 3 15 -9 13 -12 11 -12 -6z"/>
<path d="M735 4319 c-4 -6 -5 -12 -2 -15 2 -3 7 2 10 11 7 17 1 20 -8 4z"/>
<path d="M10615 4310 c3 -5 8 -10 11 -10 2 0 4 5 4 10 0 6 -5 10 -11 10 -5 0
-7 -4 -4 -10z"/>
<path d="M758 4293 c7 -3 16 -2 19 1 4 3 -2 6 -13 5 -11 0 -14 -3 -6 -6z"/>
<path d="M780 4280 c-8 -5 -12 -12 -9 -15 4 -3 12 1 19 10 14 17 11 19 -10 5z"/>
<path d="M757 4249 c7 -7 15 -10 18 -7 3 3 -2 9 -12 12 -14 6 -15 5 -6 -5z"/>
<path d="M795 4227 c4 -51 5 -53 15 -37 5 9 5 19 -1 27 -6 7 -8 17 -5 22 4 5
2 12 -2 15 -5 3 -8 -9 -7 -27z"/>
<path d="M774 4192 c3 -5 0 -13 -6 -15 -9 -4 -10 -6 -1 -6 17 -1 25 16 12 25
-7 4 -9 3 -5 -4z"/>
<path d="M810 4130 c0 -5 5 -10 10 -10 6 0 10 5 10 10 0 6 -4 10 -10 10 -5 0
-10 -4 -10 -10z"/>
<path d="M775 4090 c3 -5 8 -10 11 -10 2 0 4 5 4 10 0 6 -5 10 -11 10 -5 0 -7
-4 -4 -10z"/>
<path d="M836 4057 c3 -10 9 -15 12 -12 3 3 0 11 -7 18 -10 9 -11 8 -5 -6z"/>
<path d="M1969 2173 c-13 -16 -12 -17 4 -4 16 13 21 21 13 21 -2 0 -10 -8 -17
-17z"/>
<path d="M9370 2150 c0 -5 5 -10 11 -10 5 0 7 5 4 10 -3 6 -8 10 -11 10 -2 0
-4 -4 -4 -10z"/>
<path d="M1995 2131 c-3 -5 -2 -12 3 -15 5 -3 9 1 9 9 0 17 -3 19 -12 6z"/>
<path d="M2026 2128 c3 -5 10 -6 15 -3 13 9 11 12 -6 12 -8 0 -12 -4 -9 -9z"/>
<path d="M9346 2109 c2 -4 13 -7 24 -6 23 2 17 10 -10 12 -10 1 -17 -2 -14 -6z"/>
<path d="M9333 2085 c0 -8 4 -12 9 -9 5 3 6 10 3 15 -9 13 -12 11 -12 -6z"/>
<path d="M2037 2079 c7 -7 15 -10 18 -7 3 3 -2 9 -12 12 -14 6 -15 5 -6 -5z"/>
<path d="M2080 2062 c9 -19 30 -23 30 -5 0 4 -3 3 -7 0 -3 -4 -12 1 -20 11
-13 15 -13 15 -3 -6z"/>
<path d="M9333 2039 c-2 -23 3 -25 10 -4 4 8 3 16 -1 19 -4 3 -9 -4 -9 -15z"/>
<path d="M2115 2039 c-4 -6 -5 -12 -2 -15 2 -3 7 2 10 11 7 17 1 20 -8 4z"/>
<path d="M9270 2039 c0 -5 -6 -7 -12 -3 -7 4 -9 3 -5 -1 13 -15 34 -14 34 1 0
8 -4 14 -9 14 -4 0 -8 -5 -8 -11z"/>
<path d="M2150 2010 c0 -5 5 -10 11 -10 5 0 7 5 4 10 -3 6 -8 10 -11 10 -2 0
-4 -4 -4 -10z"/>
<path d="M9220 2010 c-8 -5 -10 -10 -5 -10 6 0 17 5 25 10 8 5 11 10 5 10 -5
0 -17 -5 -25 -10z"/>
<path d="M2095 1990 c3 -5 8 -10 11 -10 2 0 4 5 4 10 0 6 -5 10 -11 10 -5 0
-7 -4 -4 -10z"/>
<path d="M9236 1984 c-23 -23 -20 -30 4 -9 11 10 20 20 20 22 0 7 -9 2 -24
-13z"/>
<path d="M2177 1974 c2 -7 11 -10 19 -7 19 7 18 10 -5 16 -13 3 -18 1 -14 -9z"/>
<path d="M9197 1983 c-10 -9 -9 -23 1 -23 5 0 9 7 9 15 0 17 -1 18 -10 8z"/>
<path d="M2200 1950 c-9 -6 -10 -10 -3 -10 6 0 15 5 18 10 8 12 4 12 -15 0z"/>
<path d="M9146 1951 c-4 -5 3 -7 14 -4 23 6 26 13 6 13 -8 0 -17 -4 -20 -9z"/>
<path d="M9156 1923 c-6 -14 -5 -15 5 -6 7 7 10 15 7 18 -3 3 -9 -2 -12 -12z"/>
<path d="M9080 1890 c-9 -6 -10 -10 -3 -10 6 0 15 5 18 10 8 12 4 12 -15 0z"/>
<path d="M7210 826 c0 -2 8 -10 18 -17 15 -13 16 -12 3 4 -13 16 -21 21 -21
13z"/>
<path d="M7150 813 c0 -5 5 -15 10 -23 7 -12 9 -10 7 8 -1 19 -17 33 -17 15z"/>
<path d="M7253 795 c0 -8 4 -12 9 -9 5 3 6 10 3 15 -9 13 -12 11 -12 -6z"/>
<path d="M7090 790 c-9 -6 -10 -10 -3 -10 6 0 15 5 18 10 8 12 4 12 -15 0z"/>
<path d="M7123 780 c-13 -5 -23 -11 -23 -14 0 -7 40 6 46 15 6 10 6 10 -23 -1z"/>
<path d="M7026 772 c-2 -4 4 -8 14 -8 10 0 16 4 14 8 -3 4 -9 8 -14 8 -5 0
-11 -4 -14 -8z"/>
<path d="M7149 753 c-13 -16 -12 -17 4 -4 9 7 17 15 17 17 0 8 -8 3 -21 -13z"/>
<path d="M4391 738 c12 -23 21 -24 12 -1 -4 10 -2 14 5 9 6 -3 13 -3 16 2 2 4
-6 8 -19 8 -20 0 -22 -3 -14 -18z"/>
<path d="M7053 735 c0 -8 4 -12 9 -9 5 3 6 10 3 15 -9 13 -12 11 -12 -6z"/>
<path d="M4425 730 c-2 -3 7 -6 21 -6 13 0 24 3 24 7 0 9 -40 8 -45 -1z"/>
<path d="M7086 732 c-3 -5 1 -9 9 -9 8 0 12 4 9 9 -3 4 -7 8 -9 8 -2 0 -6 -4
-9 -8z"/>
<path d="M7156 723 c-6 -14 -5 -15 5 -6 7 7 10 15 7 18 -3 3 -9 -2 -12 -12z"/>
<path d="M4555 719 c-4 -6 -5 -12 -2 -15 2 -3 7 2 10 11 7 17 1 20 -8 4z"/>
<path d="M4590 716 c0 -2 7 -7 16 -10 8 -3 12 -2 9 4 -6 10 -25 14 -25 6z"/>
<path d="M4473 695 c0 -8 4 -15 9 -15 4 0 8 4 8 9 0 6 -4 12 -8 15 -5 3 -9 -1
-9 -9z"/>
<path d="M4571 703 c-1 -17 16 -25 25 -12 4 7 3 9 -4 5 -5 -3 -13 0 -15 6 -4
9 -6 10 -6 1z"/>
<path d="M4439 683 c-13 -16 -12 -17 4 -4 16 13 21 21 13 21 -2 0 -10 -8 -17
-17z"/>
</g>
</svg>
